<?xml version="1.0" ?><svg id="Capa_1" style="enable-background:new 0 0 100 100;" version="1.1" viewBox="0 0 100 100" xml:space="preserve" xmlns="http://www.w3.org/2000/svg" xmlns:xlink="http://www.w3.org/1999/xlink"><path d="M73.6,87.1h-50c-0.8,0-1.5-0.7-1.5-1.5v-54c0-0.8,0.7-1.5,1.5-1.5h9.8c0.8,0,1.5,0.7,1.5,1.5v19.5l11.3-5.5  c0.5-0.2,1-0.2,1.5,0.1c0.4,0.3,0.7,0.8,0.7,1.3v4.1l11.3-5.5c0.5-0.2,1-0.2,1.5,0.1s0.7,0.8,0.7,1.3v4.1l11.3-5.5  c0.5-0.2,1-0.2,1.5,0.1c0.4,0.3,0.7,0.8,0.7,1.3v38.7C75.1,86.5,74.4,87.1,73.6,87.1z M25.1,84.1h47V49.4l-11.3,5.5  c-0.5,0.2-1,0.2-1.5-0.1c-0.4-0.3-0.7-0.8-0.7-1.3v-4.1l-11.3,5.5c-0.5,0.2-1,0.2-1.5-0.1c-0.4-0.3-0.7-0.8-0.7-1.3v-4.1L34,54.9  c-0.5,0.2-1,0.2-1.5-0.1c-0.4-0.3-0.7-0.8-0.7-1.3V33.1h-6.8V84.1z"/><path d="M23.7,28.6c-0.8,0-1.5-0.7-1.5-1.5c0-5.1,3.8-9.3,8.7-10c-0.2-0.8-0.3-1.6-0.3-2.5C30.6,8.8,35.4,4,41.3,4  c4.4,0,8.4,2.8,10,6.9c0.4-0.1,0.9-0.1,1.3-0.1c4.3,0,7.8,3.4,7.8,7.7c2,0.7,3.4,2.5,3.4,4.7c0,2.7-2.2,5-5,5c-1.6,0-3.1-0.8-4-2  c-0.7,0.2-1.5,0.3-2.2,0.3c-2.2,0-4.3-1-5.8-2.6c-1.6,1-3.5,1.5-5.5,1.5c-0.5,0-0.9,0-1.3-0.1c-0.8-0.1-1.4-0.9-1.3-1.7  c0.1-0.8,0.9-1.4,1.7-1.3c0.3,0,0.6,0.1,0.9,0.1c1.8,0,3.5-0.6,4.9-1.7c0.3-0.3,0.8-0.4,1.2-0.3c0.4,0.1,0.8,0.3,1,0.7  c0.9,1.5,2.5,2.4,4.2,2.4c0.8,0,1.5-0.2,2.2-0.5c0.4-0.2,0.9-0.2,1.3-0.1c0.4,0.2,0.7,0.5,0.9,0.9c0.3,0.8,1,1.4,1.9,1.4  c1.1,0,2-0.9,2-2c0-1.1-0.9-2-2-2c-0.5,0-0.9-0.2-1.2-0.6c-0.3-0.3-0.4-0.8-0.3-1.2c0-0.2,0.1-0.5,0.1-0.8c0-2.7-2.2-4.8-4.9-4.8  c-0.6,0-1.2,0.1-1.8,0.3c-0.4,0.2-0.9,0.1-1.3-0.1c-0.4-0.2-0.7-0.6-0.8-1c-0.8-3.5-3.9-6-7.5-6c-4.2,0-7.7,3.4-7.7,7.7  c0,1.1,0.2,2.2,0.7,3.3c0.2,0.5,0.2,1.1-0.1,1.5s-0.8,0.7-1.4,0.6c-0.2,0-0.4,0-0.6,0c-3.9,0-7.1,3.2-7.1,7.1  C25.2,28,24.5,28.6,23.7,28.6z"/><path d="M38.4,69.4h-0.7c-0.4,0-0.8-0.3-0.8-0.8s0.3-0.8,0.8-0.8h0.7c0.4,0,0.8,0.3,0.8,0.8S38.8,69.4,38.4,69.4z"/><path d="M43.4,69.4h-0.7c-0.4,0-0.8-0.3-0.8-0.8s0.3-0.8,0.8-0.8h0.7c0.4,0,0.8,0.3,0.8,0.8S43.8,69.4,43.4,69.4z"/><path d="M48.5,69.4h-0.7c-0.4,0-0.8-0.3-0.8-0.8s0.3-0.8,0.8-0.8h0.7c0.4,0,0.8,0.3,0.8,0.8S48.9,69.4,48.5,69.4z"/><path d="M53.5,69.4h-0.7c-0.4,0-0.8-0.3-0.8-0.8s0.3-0.8,0.8-0.8h0.7c0.4,0,0.8,0.3,0.8,0.8S53.9,69.4,53.5,69.4z"/><path d="M29.9,42.9c-0.4,0-0.8-0.3-0.8-0.8v-7c0-0.4,0.3-0.8,0.8-0.8s0.8,0.3,0.8,0.8v7C30.6,42.6,30.3,42.9,29.9,42.9z"/><path d="M29.9,48.6c-0.4,0-0.8-0.3-0.8-0.8v-2.4c0-0.4,0.3-0.8,0.8-0.8s0.8,0.3,0.8,0.8v2.4C30.6,48.3,30.3,48.6,29.9,48.6z"/></svg>