<?xml version="1.0" encoding="iso-8859-1"?>
<!-- Generator: Adobe Illustrator 19.0.0, SVG Export Plug-In . SVG Version: 6.00 Build 0)  -->
<svg version="1.1" id="Capa_1" xmlns="http://www.w3.org/2000/svg" xmlns:xlink="http://www.w3.org/1999/xlink" x="0px" y="0px"
	 viewBox="0 0 490 490" style="enable-background:new 0 0 490 490;" xml:space="preserve">
<g>
	<path d="M128.008,244.593h233.984V108.111H128.008V244.593z M148.583,128.686h192.834v95.332H148.583V128.686z"/>
	<path d="M319.706,270.152c-23.313,0-42.281,18.967-42.281,42.281c0,23.318,18.969,42.285,42.281,42.285
		c23.318,0,42.286-18.967,42.286-42.285C361.992,289.119,343.024,270.152,319.706,270.152z M319.706,334.143
		c-11.971,0-21.706-9.74-21.706-21.71c0-11.971,9.735-21.706,21.706-21.706s21.711,9.735,21.711,21.706
		C341.417,324.403,331.677,334.143,319.706,334.143z"/>
	<path d="M170.294,270.152c-23.318,0-42.286,18.967-42.286,42.281c0,23.318,18.968,42.285,42.286,42.285
		c23.313,0,42.28-18.967,42.28-42.285C212.574,289.119,193.607,270.152,170.294,270.152z M170.294,334.143
		c-11.971,0-21.711-9.74-21.711-21.71c0-11.971,9.741-21.706,21.711-21.706c11.97,0,21.705,9.735,21.705,21.706
		C191.999,324.403,182.264,334.143,170.294,334.143z"/>
	<path d="M350.394,385.747h52.015V70.929H249.34V20.575h56.125c17.592,0,32.898,11.277,38.087,28.066l19.661-6.079
		C355.341,17.104,332.133,0,305.465,0H172.64c-26.463,0-50.267,17.688-57.883,43.015l19.702,5.928
		c5.023-16.703,20.725-28.367,38.182-28.367h56.126v50.354H87.591v314.818h52.015l-74.067,91.294L81.513,490l84.582-104.253h157.81
		L408.487,490l15.974-12.959L350.394,385.747z M108.166,365.172V91.505h273.668v273.667H108.166z"/>
</g>
<g>
</g>
<g>
</g>
<g>
</g>
<g>
</g>
<g>
</g>
<g>
</g>
<g>
</g>
<g>
</g>
<g>
</g>
<g>
</g>
<g>
</g>
<g>
</g>
<g>
</g>
<g>
</g>
<g>
</g>
</svg>
