<?xml version="1.0" encoding="iso-8859-1"?>
<!-- Generator: Adobe Illustrator 16.0.0, SVG Export Plug-In . SVG Version: 6.00 Build 0)  -->
<!DOCTYPE svg PUBLIC "-//W3C//DTD SVG 1.1//EN" "http://www.w3.org/Graphics/SVG/1.1/DTD/svg11.dtd">
<svg version="1.1" id="Capa_1" xmlns="http://www.w3.org/2000/svg" xmlns:xlink="http://www.w3.org/1999/xlink" x="0px" y="0px"
	 width="632.428px" height="632.428px" viewBox="0 0 632.428 632.428" style="enable-background:new 0 0 632.428 632.428;"
	 xml:space="preserve">
<g>
	<g id="Shape_26_1_">
		<g>
			<path d="M321.848,77.241V11.268C321.848,5.037,316.8,0,310.58,0s-11.268,5.037-11.268,11.268v66.288
				C135.884,86.063,10.214,217.187,10.214,383.105c0,6.23,5.048,11.268,11.268,11.268c6.22,0,11.268-5.037,11.268-11.268
				c0-46.637,51.201-82.818,95.258-82.818c45.657,0,82.807,37.15,82.807,82.818c0,6.23,5.048,11.268,11.268,11.268h1.409
				c6.22,0,11.268-5.037,11.268-11.268c0-39.527,27.854-72.621,64.948-80.824c-0.124,0.653-0.395,1.25-0.395,1.949v254.236
				c0,28.361-23.065,51.426-51.415,51.426c-28.35,0-51.415-23.064-51.415-51.426c0-6.23-5.048-11.268-11.268-11.268
				s-11.268,5.037-11.268,11.268c0,40.777,33.173,73.961,73.951,73.961c38.559,0,70.289-29.678,73.625-67.393
				c0.09-0.562,0.326-1.059,0.326-1.645v-259.16c0-1.33-0.338-2.569-0.755-3.763c44.023,1.87,79.28,38.163,79.28,82.638
				c0,6.23,5.048,11.268,11.268,11.268h1.409c6.22,0,11.268-5.037,11.268-11.268c0-45.668,37.15-82.818,82.807-82.818
				c43.686,0,92.555,35.414,92.555,82.818c0,6.23,5.048,11.268,11.268,11.268s11.268-5.037,11.268-11.268
				C622.214,213.401,490.729,80.159,321.848,77.241z M507.124,277.751c-41.611,0-77.68,24.26-94.784,59.393
				c-17.104-35.122-53.162-59.393-94.785-59.393c-41.612,0-77.68,24.26-94.785,59.393c-17.104-35.122-53.162-59.393-94.785-59.393
				c-31.02,0-64.08,14.018-87.258,36.88c29.905-124.813,140.228-214.99,275.487-214.99c134.605,0,244.512,89.286,275.024,213.165
				C569.863,291.521,539.554,277.751,507.124,277.751z"/>
		</g>
	</g>
</g>
<g>
</g>
<g>
</g>
<g>
</g>
<g>
</g>
<g>
</g>
<g>
</g>
<g>
</g>
<g>
</g>
<g>
</g>
<g>
</g>
<g>
</g>
<g>
</g>
<g>
</g>
<g>
</g>
<g>
</g>
</svg>
